<svg preserveAspectRatio="none" width="100%" height="100%" overflow="visible" style="display: block;" viewBox="0 0 28 28" fill="none" xmlns="http://www.w3.org/2000/svg">
<g id="tally-logo">
<rect id="Rectangle 1" width="28" height="28" rx="6" fill="var(--fill-0, #FED58B)"/>
<g id="t.">
<path d="M14.8835 9.13636V11.8636H7V9.13636H14.8835ZM8.78977 6H12.4205V18.2045C12.4205 18.5398 12.4716 18.8011 12.5739 18.9886C12.6761 19.1705 12.8182 19.2983 13 19.3722C13.1875 19.446 13.4034 19.483 13.6477 19.483C13.8182 19.483 13.9886 19.4688 14.1591 19.4403C14.3295 19.4063 14.4602 19.3807 14.5511 19.3636L15.1222 22.0653C14.9403 22.1222 14.6847 22.1875 14.3551 22.2614C14.0256 22.3409 13.625 22.3892 13.1534 22.4062C12.2784 22.4403 11.5114 22.3239 10.8523 22.0568C10.1989 21.7898 9.69034 21.375 9.3267 20.8125C8.96307 20.25 8.78409 19.5398 8.78977 18.6818V6Z" fill="var(--fill-0, #191919)"/>
<path d="M19.3707 22.4489C18.8082 22.4489 18.3253 22.25 17.9219 21.8523C17.5241 21.4489 17.3253 20.9659 17.3253 20.4034C17.3253 19.8466 17.5241 19.3693 17.9219 18.9716C18.3253 18.5739 18.8082 18.375 19.3707 18.375C19.9162 18.375 20.3935 18.5739 20.8026 18.9716C21.2116 19.3693 21.4162 19.8466 21.4162 20.4034C21.4162 20.7784 21.3196 21.1222 21.1264 21.4347C20.9389 21.7415 20.6918 21.9886 20.3849 22.1761C20.0781 22.358 19.7401 22.4489 19.3707 22.4489Z" fill="var(--fill-0, #191919)"/>
</g>
</g>
</svg>
